PathFileType	4	(X/Y/Z)	pose_F01_0-91.trc
DataRate	CameraRate	NumFrames	NumMarkers	Units	OrigDataRate	OrigDataStartFrame	OrigNumFrames
30	30	5	21	m	30	34	91
Frame#	Time	CHip			RHip			RKnee			RAnkle			RBigToe			RSmallToe			RHeel			LHip			LKnee			LAnkle			LBigToe			LSmallToe			LHeel			Neck			Nose			RShoulder			RElbow			RWrist			LShoulder			LElbow			LWrist			
		X1	Y1	Z1	X2	Y2	Z2	X3	Y3	Z3	X4	Y4	Z4	X5	Y5	Z5	X6	Y6	Z6	X7	Y7	Z7	X8	Y8	Z8	X9	Y9	Z9	X10	Y10	Z10	X11	Y11	Z11	X12	Y12	Z12	X13	Y13	Z13	X14	Y14	Z14	X15	Y15	Z15	X16	Y16	Z16	X17	Y17	Z17	X18	Y18	Z18	X19	Y19	Z19	X20	Y20	Z20	X21	Y21	Z21	
34	1.1333333333333333	-0.19794811137645943	1.889797118065963	-0.5820930948379461	-0.21053954856462279	1.8852325212063168	-0.511869896158083	-0.19984913708301769	1.735509536561129	-0.5042475770617783	-0.2001094737488434	1.5858164121534084	-0.4855703642909552	-0.23007238981025518	1.547736146304592	-0.4585468861672793	-0.22601449252141975	1.553330975447711	-0.4317740875537058	-0.19668421765116217	1.5757529668927444	-0.4973675600163327	-0.18383376135281407	1.8946677740368623	-0.6518460931375941	-0.18396475994749847	1.7385478328981896	-0.6342689684116393	-0.1789808712220349	1.5855558863014467	-0.617537695564325	-0.20080112350914292	1.5426251456684712	-0.6329706135892712	-0.1895205010981984	1.5496872319229278	-0.6618212549717659	-0.17695102061630738	1.5738918106717033	-0.6012612639912658	-0.19061313571382163	2.053364169019243	-0.5973785759272475	-0.2143143492648965	2.1149503007684762	-0.6005537548540775	-0.20572655003784154	2.047697201418914	-0.5013233542031542	-0.21498935413658768	1.9538470548810798	-0.4638410844287264	-0.2196883161922058	1.8741459550597301	-0.43403757946786314	-0.16858100198325413	2.0586973673372486	-0.6967458740036052	-0.1818501774863922	2.0207556724292544	-0.7474453230490795	-0.24825723361684515	2.000784656480896	-0.6852153929355319
35	1.1666666666666667	-0.19868652398992487	1.888241416959409	-0.5850151217892621	-0.2095976063141332	1.8827734646448175	-0.5168062433388931	-0.2018140388328809	1.7297067433289806	-0.501238622501744	-0.20238140362107337	1.5844608134740068	-0.48300033711173995	-0.22991545470324484	1.5470392438221436	-0.45848008303211385	-0.22475825966700946	1.5525104177480165	-0.428483110784838	-0.19994930523352036	1.574071498639339	-0.4979109246847031	-0.1837336465076247	1.8932353654728353	-0.6517839366157769	-0.18220121810211987	1.7318637831749344	-0.6354280728393844	-0.18047303569729461	1.5840589662299007	-0.6115074766314964	-0.2026536582659841	1.5409940259222807	-0.6311188115627178	-0.18867919573143405	1.5496078871607406	-0.6586902790009712	-0.17663821879889005	1.5715533244865076	-0.5968125931570074	-0.18934332051145916	2.054717280503892	-0.6026097332484198	-0.21432171792303403	2.1149365588764604	-0.6006516772668611	-0.2045968295832134	2.0479203410152778	-0.5066449786769193	-0.21498935413658768	1.9538470548810798	-0.4638410844287264	-0.2196883161922058	1.8741459550597301	-0.43403757946786314	-0.1692514181976172	2.061296324795225	-0.7001754875435041	-0.1904987281747146	2.0207269933949297	-0.7267164210624697	-0.2603040721531033	1.9994124246890177	-0.6683424335021706
36	1.2	-0.1964911057190784	1.8896710912769616	-0.5873894796390733	-0.20930098666659064	1.8852335178418758	-0.5171032237863171	-0.19934316848493686	1.7313779792442359	-0.5042020830410456	-0.2020031702615825	1.5851527225263005	-0.48347112937789366	-0.22872367655673076	1.546655779656157	-0.4552521399733321	-0.22457057814092554	1.5516214759044995	-0.42840689335634224	-0.19886506302367493	1.5737024192215188	-0.4946344138134383	-0.18237601635749426	1.8923354646007498	-0.6568713632627056	-0.18420133734368746	1.7331447194445067	-0.6375421212185508	-0.17877311630739134	1.584203994740965	-0.6177161947789505	-0.20077602503234968	1.5398119376219335	-0.6328903973427121	-0.18700722366194628	1.5480292244875822	-0.6643927694738998	-0.17819565530291065	1.5739338406494259	-0.5958666946626113	-0.19023022223213332	2.054845881153025	-0.6056884213959665	-0.21233016627528756	2.11500577226105	-0.6028242082954375	-0.20270744765103582	2.0479396808078505	-0.5089363119722402	-0.21498935413658768	1.9538470548810798	-0.4638410844287264	-0.2196883161922058	1.8741459550597301	-0.43403757946786314	-0.16935700809896725	2.059987575844656	-0.699856348610834	-0.20278844524036635	2.011417929014229	-0.7286502934231207	-0.2630185404573516	2.0076733873841626	-0.6599268385847462
37	1.2333333333333334	-0.196704667565964	1.888454661778833	-0.5873134752227317	-0.20948130089919303	1.8840552441658165	-0.5171359296470283	-0.20050317439655824	1.7300233269212808	-0.5070010908080042	-0.20231679477413397	1.5842838269857358	-0.4829397502999099	-0.22944540730979546	1.54424417426555	-0.45880798458264493	-0.22544671932364774	1.5504485603076466	-0.4317439326309972	-0.1991778007196575	1.5756245053011972	-0.4943178095542642	-0.18450853897999234	1.8920288606508835	-0.6546788593486843	-0.18282701142952798	1.7332779753222611	-0.6389897648823967	-0.1786896384774036	1.5841787354535664	-0.6178141249140005	-0.20053088195292385	1.5412071193884025	-0.6333271680553625	-0.18942846326817386	1.5494445384517215	-0.6619007992215247	-0.17395260747954647	1.5714070151019495	-0.6000096019390845	-0.18919112735957916	2.0539032581066006	-0.6110586359139001	-0.21229758744020424	2.116127370600897	-0.6026519231707301	-0.2035822373579368	2.048017440858234	-0.51210375295751	-0.21498935413658768	1.9538470548810798	-0.4638410844287264	-0.2196883161922058	1.8741459550597301	-0.43403757946786314	-0.1701201224507903	2.0603490299793132	-0.7029157344273097	-0.20171966527637833	2.016843657895955	-0.7155821048100426	-0.2657041059775159	2.004176221485212	-0.6592386221700943
38	1.2666666666666666	-0.19668473432443478	1.8845600454082805	-0.5867213022078529	-0.20957033342500805	1.8814650468114065	-0.5166894221756698	-0.20132024533598245	1.7282998192710144	-0.5016612756379356	-0.2021018470513064	1.585671843015762	-0.48350154006950624	-0.23078315627627888	1.5465763172992888	-0.45309606243296113	-0.22456171344971318	1.5512137457252546	-0.4283184366962372	-0.1979414208092027	1.576903190172234	-0.5003196297411656	-0.18335010202584123	1.8895790442922684	-0.6596509303654161	-0.18274867029431036	1.7291174754870886	-0.6387223698579192	-0.17873729855413972	1.5841462200896474	-0.6176969896453738	-0.20078367912539377	1.5425934297372528	-0.6330434498912256	-0.18860124553612262	1.5496178319392118	-0.6588008953055495	-0.17607909465322494	1.5712661617413974	-0.5977380259850609	-0.18905722671707495	2.055014157668287	-0.6110944513642029	-0.214277311974881	2.1161428822860824	-0.600599947797135	-0.2017076898903996	2.0493588343834266	-0.5148331469916149	-0.21498935413658768	1.9538470548810798	-0.4638410844287264	-0.2196883161922058	1.8741459550597301	-0.43403757946786314	-0.17008714483035198	2.0602836137066514	-0.7029994091028355	-0.19867192888156618	2.011917049221076	-0.7243605688161231	-0.26066292503145316	2.0057883131718257	-0.6521718572102156
